<?xml version="1.0" standalone="no"?><svg xmlns="http://www.w3.org/2000/svg" viewBox="0 0 1440 320"><path fill="#0099ff" fill-opacity="1" d="M0,160L21.8,149.3C43.6,139,87,117,131,106.7C174.5,96,218,96,262,106.7C305.5,117,349,139,393,133.3C436.4,128,480,96,524,112C567.3,128,611,192,655,192C698.2,192,742,128,785,112C829.1,96,873,128,916,117.3C960,107,1004,53,1047,58.7C1090.9,64,1135,128,1178,144C1221.8,160,1265,128,1309,112C1352.7,96,1396,96,1418,96L1440,96L1440,0L1418.2,0C1396.4,0,1353,0,1309,0C1265.5,0,1222,0,1178,0C1134.5,0,1091,0,1047,0C1003.6,0,960,0,916,0C872.7,0,829,0,785,0C741.8,0,698,0,655,0C610.9,0,567,0,524,0C480,0,436,0,393,0C349.1,0,305,0,262,0C218.2,0,175,0,131,0C87.3,0,44,0,22,0L0,0Z"></path></svg>